<?xml version="1.0" standalone="no"?>
<!DOCTYPE svg PUBLIC "-//W3C//DTD SVG 20010904//EN"
 "http://www.w3.org/TR/2001/REC-SVG-20010904/DTD/svg10.dtd">
<svg version="1.0" xmlns="http://www.w3.org/2000/svg"
 width="200.000000pt" height="200.000000pt" viewBox="0 0 200.000000 200.000000"
 preserveAspectRatio="xMidYMid meet">
<metadata>
Created by potrace 1.11, written by Peter Selinger 2001-2013
</metadata>
<g transform="translate(0.000000,200.000000) scale(0.100000,-0.100000)"
fill="#000000" stroke="none">
<path d="M1585 1960 c-60 -21 -119 -41 -130 -43 -52 -12 -221 -79 -282 -113
-186 -102 -363 -266 -526 -486 -102 -137 -157 -231 -251 -423 -146 -299 -211
-538 -211 -775 l0 -115 208 -3 207 -2 1 77 c1 91 3 115 18 203 24 136 106 344
187 472 l24 38 269 0 c206 0 270 -3 273 -12 2 -7 3 -185 2 -395 l-1 -383 218
0 218 0 1 968 0 969 -28 26 c-42 40 -74 40 -197 -3z m-210 -684 c0 -101 -4
-171 -10 -175 -8 -6 -335 -8 -368 -2 -14 2 75 116 147 186 74 72 204 167 221
162 5 -2 9 -73 10 -171z"/>
</g>
</svg>
