<svg version="1" xmlns="http://www.w3.org/2000/svg" width="266.667" height="266.667" viewBox="0 0 200.000000 200.000000"><path d="M158.5 4c-6 2.1-11.9 4.1-13 4.3-5.2 1.2-22.1 7.9-28.2 11.3C98.7 29.8 81 46.2 64.7 68.2 54.5 81.9 49 91.3 39.6 110.5 25 140.4 18.5 164.3 18.5 188v11.5l20.8.3 20.7.2.1-7.7c.1-9.1.3-11.5 1.8-20.3 2.4-13.6 10.6-34.4 18.7-47.2L83 121h26.9c20.6 0 27 .3 27.3 1.2.2.7.3 18.5.2 39.5l-.1 38.3h43.6l.1-96.8V6.3l-2.8-2.6c-4.2-4-7.4-4-19.7.3zm-21 68.4c0 10.1-.4 17.1-1 17.5-.8.6-33.5.8-36.8.2-1.4-.2 7.5-11.6 14.7-18.6 7.4-7.2 20.4-16.7 22.1-16.2.5.2.9 7.3 1 17.1z"/></svg>